<svg width="34" height="34" fill="none" xmlns="http://www.w3.org/2000/svg"><path d="M29.699 4.506H26.83V1.639A1.641 1.641 0 0025.193 0H4.301C3.4 0 2.663.737 2.663 1.639v26.216c0 .902.737 1.639 1.638 1.639H7.17v2.867c0 .902.737 1.639 1.638 1.639h13.928c.9 0 2.175-.505 2.83-1.123l4.578-4.308c.657-.618 1.194-1.86 1.194-2.762V6.145c0-.902-.737-1.639-1.638-1.639zM7.169 6.145v22.12H4.3a.415.415 0 01-.41-.41V1.64c0-.222.188-.41.41-.41h20.892c.222 0 .41.188.41.41v2.867H8.807c-.902 0-1.638.737-1.638 1.639zM29.3 27.674l-4.577 4.308a2.17 2.17 0 01-.351.257v-3.77a1.026 1.026 0 011.024-1.023h4.099a1.715 1.715 0 01-.195.228zm.807-1.867c0 .122-.023.263-.056.41h-4.655a2.258 2.258 0 00-2.253 2.253v4.251c-.146.03-.287.05-.41.05H8.807a.415.415 0 01-.41-.41V6.145c0-.222.188-.41.41-.41H29.7c.222 0 .41.188.41.41l-.002 19.662z" fill="#E72A00"/><path d="M25.193 10.24h-11.88a.614.614 0 100 1.23h11.88a.614.614 0 100-1.23zm0 8.194h-11.88a.614.614 0 100 1.229h11.88a.614.614 0 100-1.23zm-5.325 4.096h-6.554a.614.614 0 100 1.229h6.554a.614.614 0 000-1.229zm5.325-8.193h-11.88a.614.614 0 100 1.23h11.88a.614.614 0 100-1.23z" fill="#E72A00"/></svg>