<svg width="34" height="34" fill="none" xmlns="http://www.w3.org/2000/svg"><g clip-path="url(#clip0)" fill="#1E1E1E"><path d="M21.278 4.005H8.214a.498.498 0 100 .996h13.064a.498.498 0 100-.996zm0 4.966H8.214a.498.498 0 100 .996h13.064a.498.498 0 100-.996zm0 4.967H8.214a.498.498 0 100 .996h13.064a.498.498 0 100-.996zm3.388 3.632a7.097 7.097 0 00-7.09 7.09c0 3.909 3.18 7.089 7.09 7.089 3.909 0 7.09-3.18 7.09-7.09 0-3.909-3.181-7.089-7.09-7.089zm0 13.183a6.1 6.1 0 01-6.093-6.093 6.1 6.1 0 016.093-6.094 6.1 6.1 0 016.093 6.094 6.1 6.1 0 01-6.093 6.093z"/><path d="M24.666 20.595a.498.498 0 00.498-.498v-.228a.498.498 0 00-.997 0v.228c0 .275.223.498.498.498zm3.034.325l-.16.161a.498.498 0 00.704.705l.161-.162a.498.498 0 10-.704-.704zm1.03 3.74c0 .275.223.498.498.498h.228a.498.498 0 000-.996h-.228a.498.498 0 00-.498.498zm-8.627-.498h-.229a.498.498 0 100 .996h.229a.498.498 0 000-.996zm8.141 3.372a.498.498 0 10-.704.704l.16.161a.498.498 0 10.705-.704l-.161-.161zm-3.578 1.19a.498.498 0 00-.498.498v.228a.498.498 0 10.996 0v-.228a.498.498 0 00-.498-.498zm-3.579-1.19l-.162.161a.498.498 0 10.705.704l.16-.161a.498.498 0 10-.703-.704zm.543-6.614a.498.498 0 00-.705.704l.162.162a.498.498 0 00.704-.705l-.162-.161zm4.393 3.242h-.86V22.03a.498.498 0 00-.995 0v2.629c0 .275.222.498.498.498h1.357a.498.498 0 100-.997z"/><path d="M32.242 19.206a.498.498 0 00-.808.583 8.277 8.277 0 011.57 4.87c0 4.598-3.74 8.34-8.339 8.34-4.598 0-8.338-3.742-8.338-8.34 0-4.597 3.74-8.338 8.338-8.338a8.33 8.33 0 015.504 2.075.498.498 0 00.657-.749 9.324 9.324 0 00-5.899-2.318V7.545h4.253c.53 0 .962-.432.962-.962V3.11c0-1.75-1.45-3.105-3.054-3.105H15.382a.498.498 0 100 .996h9.378a3.093 3.093 0 00-.829 2.11v12.242a9.33 9.33 0 00-6.61 3.55H8.214a.498.498 0 100 .996h8.424a9.268 9.268 0 00-1.165 3.133H5.165V2.577c0-.868.707-1.575 1.576-1.575h6.65a.498.498 0 100-.996h-6.65a2.575 2.575 0 00-2.572 2.571v20.456H.498A.498.498 0 000 23.53v.965a4.19 4.19 0 004.185 4.185h1.604a.498.498 0 100-.997H4.185a3.192 3.192 0 01-3.189-3.188v-.467h14.357a9.298 9.298 0 00.482 3.656H7.779a.498.498 0 100 .996h8.462c1.505 3.14 4.715 5.313 8.423 5.313 5.148 0 9.335-4.187 9.335-9.334a9.267 9.267 0 00-1.758-5.454zM29.146 3.111V6.55h-4.219V3.11c0-1.163.947-2.11 2.11-2.11 1.163 0 2.11.947 2.11 2.11z"/></g><defs><clipPath id="clip0"><path fill="#fff" d="M0 0h34v34H0z"/></clipPath></defs></svg>