<svg width="34" height="34" fill="none" xmlns="http://www.w3.org/2000/svg"><g clip-path="url(#clip0)" fill="#5C5C5C"><path d="M20.32 22.977h-.664v-8.633a.664.664 0 00-.664-.664H13.68a.664.664 0 00-.664.664V17c0 .367.297.664.664.664h.664v5.313h-.664a.664.664 0 00-.664.664v2.656c0 .367.297.664.664.664h6.64a.664.664 0 00.664-.664V23.64a.664.664 0 00-.664-.664zm-.664 2.656h-5.312v-1.328h.664a.664.664 0 00.664-.664V17a.664.664 0 00-.664-.664h-.664v-1.328h3.984v8.633c0 .366.298.664.664.664h.664v1.328zM17 12.352a2.66 2.66 0 002.656-2.657A2.66 2.66 0 0017 7.04a2.66 2.66 0 00-2.656 2.656A2.66 2.66 0 0017 12.352zm0-3.985a1.33 1.33 0 011.328 1.328A1.33 1.33 0 0117 11.023a1.33 1.33 0 01-1.328-1.328A1.33 1.33 0 0117 8.367z"/><path d="M17 0C7.837 0 0 7.823 0 17c0 3.135.898 6.469 2.412 8.99L.034 33.126a.664.664 0 00.84.84l7.136-2.379C10.53 33.102 13.865 34 17 34c9.164 0 17-7.824 17-17 0-9.165-7.824-17-17-17zm0 32.672c-3.008 0-6.204-.887-8.55-2.374a.664.664 0 00-.566-.069l-6.17 2.057 2.056-6.17a.663.663 0 00-.069-.566C2.215 23.204 1.328 20.007 1.328 17 1.328 8.505 8.504 1.328 17 1.328c8.495 0 15.67 7.177 15.67 15.672 0 8.495-7.176 15.672-15.671 15.672z"/></g><defs><clipPath id="clip0"><path fill="#fff" d="M0 0h34v34H0z"/></clipPath></defs></svg>