<svg width="26" height="34" fill="none" xmlns="http://www.w3.org/2000/svg"><path d="M25.97 28.141c-.075-4.62-4.8-5.986-8.25-6.983a64.2 64.2 0 01-1.152-.34v-1.906a6.792 6.792 0 001.822-1.674h2.101a1.867 1.867 0 001.865-1.865v-2.258c.125-.29.194-.61.194-.946v-.702c0-.336-.07-.655-.194-.946V9.357C22.356 4.197 18.16 0 13 0 7.842 0 3.645 4.197 3.645 9.357v1.131l.001.026a2.392 2.392 0 00-.197.953v.702a2.409 2.409 0 002.406 2.407h.548a6.758 6.758 0 003.028 4.336v1.906a64.2 64.2 0 01-1.152.34c-3.45.997-8.174 2.362-8.25 6.983v5.195c0 .367.298.664.664.664h1.97a.664.664 0 000-1.328H1.356v-4.514c.028-1.613.769-2.821 2.33-3.804 1.032-.648 2.292-1.11 3.534-1.496l1.604 3.126a.67.67 0 00.962.247l.716-.483.614 2.309-1.053 4.615H8.626a.664.664 0 000 1.328h16.681a.664.664 0 00.664-.664v-5.194zm-8.618-5.707l.132.038-1.148 2.24-2.148-1.45 1.82-1.227c.423.133.873.263 1.344.4zM13 24.064l1.332.898-.644 2.419h-1.377l-.643-2.419L13 24.064zm0-1.602l-2.24-1.511v-1.398a6.707 6.707 0 002.24.384c.785 0 1.539-.136 2.24-.384v1.398L13 22.46zm5.41-12.984l-.027-.017c-1.363-.868-2.54-1.617-4.384-1.09a.662.662 0 00-.05.018c-.392.146-.747.283-1.09.416-2.1.808-3.247 1.25-5.27 1.193v-.532A5.416 5.416 0 0113 4.056a5.416 5.416 0 015.41 5.41v.012zm2.618 5.895c0 .296-.24.537-.537.537h-1.323c.187-.424.332-.87.428-1.334h.549c.312 0 .61-.06.883-.169v.966zm.194-3.204a1.08 1.08 0 01-1.077 1.079h-.408l.001-2.858h.407c.594 0 1.077.483 1.077 1.077v.702zM5.855 13.248a1.08 1.08 0 01-1.078-1.079v-.702c0-.594.484-1.077 1.078-1.077h.407v2.858h-.407zm.419-4.186h-.42c-.31 0-.606.06-.88.167.07-4.368 3.643-7.9 8.026-7.9 4.384 0 7.958 3.532 8.026 7.9a2.39 2.39 0 00-.881-.167h-.42C19.515 5.534 16.58 2.728 13 2.728c-3.58 0-6.516 2.806-6.726 6.334zm1.356 4.783v-.002a5.44 5.44 0 01-.04-.644v-1.873c2.272.055 3.627-.466 5.745-1.282l1.054-.402c1.255-.35 1.977.11 3.28.94.227.143.475.301.74.463V13.2a5.37 5.37 0 01-.73 2.71h-4.68a.664.664 0 000 1.329h3.595A5.387 5.387 0 0113 18.608a5.417 5.417 0 01-5.37-4.763zM9.665 24.71l-1.15-2.239.133-.038c.47-.136.92-.266 1.344-.4l1.82 1.229-2.147 1.448zm1.762 7.96l.903-3.962h1.34l.904 3.963h-3.147zm13.215 0h-8.705l-1.054-4.614.614-2.31.717.484a.67.67 0 00.963-.248l1.602-3.125c1.242.386 2.502.848 3.533 1.496 1.562.983 2.302 2.191 2.33 3.803v4.515z" fill="#5C5C5C"/><path d="M22.02 29.351h-3.347a.664.664 0 000 1.329h3.347a.664.664 0 000-1.329zM5.644 32.672a.664.664 0 000 1.328h.002a.663.663 0 10-.002-1.328z" fill="#5C5C5C"/></svg>