<svg class="star" viewBox="0 0 34 34" xmlns="http://www.w3.org/2000/svg"><g clip-path="url(#clip0)"><path d="M33.931 13.068a1.337 1.337 0 00-1.163-.93l-10.395-.965-2.06-4.785a.498.498 0 10-.915.394l2.177 5.057a.5.5 0 00.412.299l10.69.991c.211.02.285.179.307.246a.347.347 0 01-.104.38l-8.065 7.086a.498.498 0 00-.158.483l2.36 10.473a.347.347 0 01-.138.369.347.347 0 01-.394.018l-9.23-5.48a.498.498 0 00-.51 0l-9.23 5.48a.347.347 0 01-.394-.018.347.347 0 01-.139-.37l1.219-5.405a.498.498 0 10-.972-.219L6.01 31.578c-.12.536.08 1.07.526 1.394.445.323 1.015.35 1.488.069L17 27.71l8.976 5.33c.218.129.457.193.694.193.278 0 .554-.088.794-.262.445-.324.646-.858.525-1.394l-2.295-10.184 7.843-6.89c.413-.363.564-.913.394-1.436z"/><path d="M19.397 4.263l-1.153-2.678A1.336 1.336 0 0017 .766c-.55 0-1.027.314-1.244.819l-4.13 9.588-10.394.964a1.336 1.336 0 00-1.163.93 1.336 1.336 0 00.394 1.437l7.843 6.89-.597 2.649a.498.498 0 10.971.219l.662-2.938a.498.498 0 00-.157-.484L1.12 13.755a.347.347 0 01-.104-.38.347.347 0 01.308-.246l10.69-.991a.498.498 0 00.41-.3l4.247-9.859A.347.347 0 0117 1.762c.07 0 .245.021.33.217l1.153 2.678a.498.498 0 00.914-.394z"/></g><defs><clipPath id="clip0"><rect fill="#fff"/></clipPath></defs></svg>